<?xml version="1.0" encoding="utf-8"?>
<!-- Generator: Adobe Illustrator 24.0.2, SVG Export Plug-In . SVG Version: 6.00 Build 0)  -->
<svg version="1.1" id="Layer_1" xmlns="http://www.w3.org/2000/svg" xmlns:xlink="http://www.w3.org/1999/xlink" x="0px" y="0px"
	 viewBox="0 0 994.7 384" style="enable-background:new 0 0 994.7 384;" xml:space="preserve">
<style type="text/css">
	.st0{fill-rule:evenodd;clip-rule:evenodd;fill:#75777D;}
	.st1{fill-rule:evenodd;clip-rule:evenodd;fill:#00984F;}
	.st2{fill-rule:evenodd;clip-rule:evenodd;fill:#26B67F;}
</style>
<path class="st0" d="M908,145h6.4h44.8v11.9h-44.8v27h38v11.9h-38v26.4h44.8v11.9h-44.8H908h-6.1V145H908z M868.1,211.6V145h12.4
	v89.1H869l-42-65.6 M827,168.5v65.6h-12.4V145H826l42.1,66.6 M782.1,195.1l20.6,39h-14.8l-19-37.7h-18.6v37.7h-12.5v-89.2h5.5h7.1
	h22.9c5.1,0,9.7,1.1,13.6,3.2c3.9,2.1,6.9,5.1,9.1,9c2.2,3.9,3.2,8.4,3.2,13.5c0,5.1-1.1,9.6-3.2,13.5c-2.2,3.9-5.2,6.9-9.1,9
	C785.2,194,783.7,194.6,782.1,195.1z M750.2,184.5h23.4c2.4,0,4.5-0.6,6.3-1.7c1.8-1.2,3.3-2.8,4.3-4.9c1-2.1,1.5-4.5,1.5-7.3
	c0-2.7-0.5-5.2-1.5-7.3c-1-2.1-2.4-3.7-4.2-4.9c-1.8-1.2-3.9-1.7-6.3-1.7h-23.4V184.5z M705.8,202.7l-13.9-40.5L678,202.7H705.8z
	 M686.6,145h10.7l32.9,89.2h-13.5l-6.7-19.6h-36l-6.7,19.6h-13.5L686.6,145z M617.9,179.8l32.4,54.4h-15.3L609,190.6l-14.5,17.7
	v25.9h-12.5V145h12.5v46.6l36.7-46.6h15.4L617.9,179.8z M517.2,145h6.4h44.8v11.9h-44.8v27h38v11.9h-38v26.4h44.8v11.9h-44.8h-6.4
	h-6.1V145H517.2z M465.9,235.1c-4.8,0-9.1-1-13.1-2.9c-4-1.9-7.2-4.6-9.7-8.1l10.2-7.4c1.2,2,2.8,3.6,5,4.7c2.2,1.1,4.7,1.7,7.6,1.7
	c4.9,0,8.6-1.5,11.3-4.5c2.7-3,4-7.3,4-12.7V145h12.5v60.8c0,6.2-1.1,11.5-3.2,15.8c-2.2,4.4-5.3,7.7-9.5,10
	C476.8,233.9,471.8,235.1,465.9,235.1z M380.4,145h12.5v77.3h44.8v11.9h-44.8h-6.3h-6.3V145z"/>
<path class="st0" d="M760,333.1c0-4.3-1.1-7.7-3.2-10c-2.1-2.4-5.1-3.5-9-3.5c-4,0-7,1-9.1,3.1c-2.1,2.1-3.2,5-3.2,8.8v38.8h-12
	v-61.3h12v8.5c1.7-2.7,3.8-4.8,6.2-6.4c3-2,6.4-3,10.1-3c4.3,0,8,1,11,2.9c3,2,5.3,4.8,6.9,8.5c0.1,0.2,0.2,0.5,0.3,0.7
	c1.9-3.8,4.3-6.7,7.3-8.8c3.2-2.2,6.7-3.3,10.5-3.3c4.4,0,8.2,1,11.3,2.9c3.1,2,5.5,4.8,7.2,8.5c1.6,3.8,2.4,8.3,2.4,13.5v37.2h-12
	v-37.2c0-4.3-1.1-7.7-3.4-10c-2.3-2.4-5.4-3.5-9.5-3.5c-3.8,0-6.6,1.1-8.7,3.4c-2,2.3-3.1,5.5-3.1,9.7l0,0c0,0.1,0,0.3,0,0.4v37.2
	H760V333.1z M707.4,323.5c-1.1-1.3-2.4-2.3-4-3c-1.6-0.7-3.5-1-5.6-1c-3.8,0-6.8,1.1-8.9,3.2c-2.1,2.1-3.2,5-3.2,8.8v38.8h-12v-61.3
	h12v8.6c1.7-2.6,3.7-4.8,6.1-6.4c3-2,6.3-3,9.9-3c2.8,0,5.3,0.4,7.6,1.2c2.3,0.8,4.2,2,5.9,3.6L707.4,323.5z M644.6,343.7h-16.8
	c-3.2,0-5.5,0.7-7.1,2.1c-1.6,1.4-2.3,3.5-2.3,6.4c0,3.1,1,5.4,3.1,6.9c2.1,1.5,5.2,2.3,9.4,2.3c4.6,0,8-0.5,10.3-1.5
	c2.3-1,3.4-2.5,3.4-4.6V343.7z M629.5,371.2c-7.6,0-13.2-1.6-16.9-4.7c-3.8-3.1-5.6-7.9-5.6-14.3c0-6.1,1.7-10.6,5.1-13.6
	c3.4-3,8.6-4.6,15.6-4.6h16.9v-2.6c0-4-1.1-7.1-3.2-9.4c-2.2-2.2-5.2-3.3-9.1-3.3c-2.4,0-4.8,0.4-7.2,1.1c-2.3,0.7-4.4,1.8-6.2,3.1
	l-8.8-6c2.3-2.8,5.4-5,9.2-6.5c3.8-1.6,8-2.3,12.7-2.3c5.1,0,9.4,0.9,13.1,2.7c3.6,1.8,6.4,4.4,8.3,7.8c1.9,3.4,2.8,7.5,2.8,12.3
	v39.4h-11.5v-4.7c-0.8,0.9-1.7,1.7-2.7,2.4c-1.6,1-3.3,1.9-5.4,2.4C634.4,370.9,632.1,371.2,629.5,371.2z M581.9,334.4
	c0-4.2-1.1-7.4-3.3-9.7c-2.2-2.3-5.2-3.4-9.1-3.4c-3.8,0-6.7,1-8.8,3c-2.1,2-3.1,4.8-3.1,8.4v37.6H546v-82.8h11.6v31.8
	c1.6-2.5,3.6-4.5,6-6.1c2.9-1.9,6.2-2.9,9.8-2.9c6.4,0,11.4,2.1,14.9,6.3s5.3,10.1,5.3,17.8v35.9h-11.6V334.4z M475.5,284.3h6.2h5.8
	h21.2c5.1,0,9.6,1.1,13.5,3.3c3.9,2.2,6.9,5.3,9.1,9.2c2.2,4,3.2,8.6,3.2,13.8c0,5.2-1.1,9.8-3.2,13.8c-2.1,4-5.2,7-9.1,9.2
	c-3.9,2.2-8.4,3.3-13.5,3.3h-21.2v33.3h-12.1V284.3z M487.6,295.8v29.7h21.6c2.6,0,4.9-0.6,6.9-1.8c2-1.2,3.5-2.9,4.6-5.2
	c1.1-2.3,1.6-4.8,1.6-7.7c0-3-0.5-5.6-1.6-7.8c-1.1-2.2-2.6-4-4.6-5.2c-2-1.3-4.3-1.9-6.9-1.9H487.6z"/>
<path class="st1" d="M870.9,351.4h-34.7l-6.5,18.9h-13l31.7-85.9h10.3l31.7,85.9h-13L870.9,351.4z M840.1,340h26.8l-13.4-39
	L840.1,340z"/>
<path class="st1" d="M911.4,295.8v63h15.6c6.3,0,11.3-1.7,14.7-4.9c3.5-3.3,5.2-7.9,5.2-13.9v-25.3c0-6-1.8-10.6-5.2-13.9
	c-3.5-3.3-8.4-4.9-14.7-4.9H911.4z M899.3,284.3h8.2h3.9h15.2c6.9,0,12.8,1.2,17.7,3.6c4.9,2.4,8.6,5.9,11.2,10.5
	c2.6,4.6,3.8,10.2,3.8,16.7v24.3c0,6.5-1.3,12-3.8,16.7c-2.6,4.6-6.3,8.1-11.2,10.5c-4.9,2.4-10.8,3.6-17.7,3.6h-15.1h-3.9h-8.2
	V284.3z"/>
<path class="st2" d="M105.1,150.9v-36.6H16.6c-9.2,0-16.6,7.5-16.6,16.6v67.3c0,25.6,20.9,46.5,46.5,46.5h39.1
	c11,0,19.9,9,19.9,19.9V313c0,18.3,14.9,33.2,33.2,33.2h36.6c33.9,0,61.5-27.6,61.5-61.5V175.8c0-33.9-27.6-61.5-61.5-61.5h-23.8
	v36.6h23.8c13.7,0,24.9,11.2,24.9,24.9v108.9c0,13.7-11.2,24.9-24.9,24.9h-33.3v-49.9c0-28.4-23.2-51.5-51.5-51.5H46.5
	c-5.5,0-10-4.5-10-10v-47.4H105.1z"/>
<path class="st1" d="M195.4,197.4v36.6h-23.8c-33.9,0-61.5-27.6-61.5-61.5V63.5c0-33.9,27.6-61.5,61.5-61.5h36.6
	c18.3,0,33.2,14.9,33.2,33.2v48.2c0,11,9,19.9,19.9,19.9h39.1c25.6,0,46.5,20.9,46.5,46.5v67.3c0,9.2-7.5,16.6-16.6,16.6H242v-36.6
	h68.5V150c0-5.5-4.5-10-10-10h-44.1c-28.4,0-51.5-23.2-51.5-51.5V38.6h-33.3c-13.7,0-24.9,11.2-24.9,24.9v108.9
	c0,13.7,11.2,24.9,24.9,24.9H195.4z"/>
<rect x="245" y="254.7" class="st0" width="714.3" height="10"/>
</svg>
